<svg width="16" height="16" viewBox="0 0 16 16" fill="none" xmlns="http://www.w3.org/2000/svg">
<path d="M15.9999 14.2081V1.75078C15.9999 0.78385 15.2048 0 14.2241 0H14.2202C13.2394 0 12.4443 0.78385 12.4443 1.75078V14.2081C12.4443 15.175 13.2394 15.9589 14.2202 15.9589H14.2241C15.2048 15.9589 15.9999 15.175 15.9999 14.2081Z" fill="#CE1126"/>
<path opacity="0.9" d="M14.2447 0H1.75529C0.78587 0 0 0.793014 0 1.77124V1.77517C0 2.7534 0.78587 3.54641 1.75529 3.54641H14.2447C15.2141 3.54641 16 2.7534 16 1.77517V1.77124C16 0.793014 15.2141 0 14.2447 0Z" fill="#0099B5"/>
<path d="M8.02116 9.77733C9.0053 9.77733 9.8031 8.98159 9.8031 7.99998C9.8031 7.0184 9.0053 6.22266 8.02116 6.22266C7.03705 6.22266 6.23926 7.0184 6.23926 7.99998C6.23926 8.98159 7.03705 9.77733 8.02116 9.77733Z" fill="#CE1126"/>
<path d="M2.30438 16C3.28851 16 4.08632 15.2042 4.08632 14.2226C4.08632 13.2411 3.28851 12.4453 2.30438 12.4453C1.32025 12.4453 0.522461 13.2411 0.522461 14.2226C0.522461 15.2042 1.32025 16 2.30438 16Z" fill="#1EB53A"/>
</svg>
