<svg xmlns="http://www.w3.org/2000/svg" width="66" height="66" viewBox="0 0 66 66" fill="none">
  <rect x="8.32275" y="35.6678" width="49.3539" height="8.00333" rx="2.66667" stroke="black" stroke-width="4" stroke-linecap="round" stroke-linejoin="round"/>
  <path d="M11.6581 43.6711V57.01" stroke="black" stroke-width="4" stroke-linecap="round" stroke-linejoin="round"/>
  <rect x="35.668" y="43.6711" width="18.6744" height="13.3389" stroke="black" stroke-width="4" stroke-linecap="round" stroke-linejoin="round"/>
  <path d="M47.0056 50.3405H43.0039" stroke="black" stroke-width="4" stroke-linecap="round" stroke-linejoin="round"/>
  <path fill-rule="evenodd" clip-rule="evenodd" d="M43.3408 27.6644H22.6602C21.8649 27.6644 21.1022 27.3485 20.5399 26.7861C19.9775 26.2238 19.6616 25.4611 19.6616 24.6658V11.9885C19.6616 11.1932 19.9775 10.4305 20.5399 9.86819C21.1022 9.30585 21.8649 8.98993 22.6602 8.98993H43.3408C44.9969 8.98993 46.3394 10.3324 46.3394 11.9885V24.6658C46.3394 26.3219 44.9969 27.6644 43.3408 27.6644Z" stroke="black" stroke-width="4" stroke-linecap="round" stroke-linejoin="round"/>
  <path d="M38.3353 35.6677L37.0014 27.6644" stroke="black" stroke-width="4" stroke-linecap="round" stroke-linejoin="round"/>
  <path d="M27.6645 35.6677L28.9984 27.6644" stroke="black" stroke-width="4" stroke-linecap="round" stroke-linejoin="round"/>
</svg>