<svg xmlns="http://www.w3.org/2000/svg" width="32" height="32" viewBox="0 0 32 32" fill="none">
  <path d="M26.6714 10.6644H21.3358C20.5992 10.6644 20.002 10.0672 20.002 9.33055V3.995" stroke="black" stroke-width="2" stroke-linecap="round" stroke-linejoin="round"/>
  <path d="M7.99683 10.6644V6.66277C7.99683 5.1894 9.19123 3.995 10.6646 3.995H20.2313C20.9387 3.995 21.6172 4.27631 22.1174 4.77665L25.8896 8.54889C26.39 9.04908 26.6713 9.72753 26.6713 10.435V25.3372C26.6713 26.8106 25.4769 28.005 24.0035 28.005H10.6646C9.19123 28.005 7.99683 26.8106 7.99683 25.3372V24.0033" stroke="black" stroke-width="2" stroke-linecap="round" stroke-linejoin="round"/>
  <rect x="3.99512" y="10.6644" width="13.3389" height="13.3389" rx="4" stroke="black" stroke-width="2" stroke-linecap="round" stroke-linejoin="round"/>
  <path d="M8.55298 14.6367H11.8877C12.6244 14.6367 13.2216 15.2339 13.2216 15.9706V16.6376C13.2216 17.3742 12.6244 17.9714 11.8877 17.9714H8.55298" stroke="black" stroke-width="2" stroke-linecap="round" stroke-linejoin="round"/>
  <path d="M8.55293 19.9723V14.6367" stroke="black" stroke-width="2" stroke-linecap="round" stroke-linejoin="round"/>
</svg>