<svg xmlns="http://www.w3.org/2000/svg" width="32" height="32" viewBox="0 0 32 32" fill="none">
  <path fill-rule="evenodd" clip-rule="evenodd" d="M12.3599 8.72668H19.6399C21.6452 8.72668 23.2719 10.352 23.2719 12.36V19.64C23.2719 21.6454 21.6466 23.272 19.6386 23.272H12.3599C10.3532 23.272 8.72656 21.6467 8.72656 19.6387V12.36C8.72656 10.3534 10.3532 8.72668 12.3599 8.72668Z" stroke="white" stroke-linecap="round" stroke-linejoin="round"/>
  <path d="M20.0002 11.9334C19.9628 11.9334 19.9335 11.964 19.9335 12C19.9335 12.036 19.9628 12.0667 20.0002 12.0667C20.0375 12.0667 20.0668 12.0374 20.0668 12C20.0668 11.964 20.0362 11.9334 20.0002 11.9334" stroke="white" stroke-linecap="round" stroke-linejoin="round"/>
  <path d="M17.8852 14.1146C18.9265 15.156 18.9265 16.844 17.8852 17.8853C16.8438 18.9266 15.1558 18.9266 14.1145 17.8853C13.0732 16.844 13.0732 15.156 14.1145 14.1146C15.1558 13.0733 16.8438 13.0733 17.8852 14.1146" stroke="white" stroke-linecap="round" stroke-linejoin="round"/>
  <path fill-rule="evenodd" clip-rule="evenodd" d="M10 4H22.0053C25.316 4 28 6.684 28 9.99467V22.0067C28 25.316 25.316 28 22.0053 28H9.99467C6.684 28 4 25.316 4 22.0053V10C4 6.68667 6.68667 4 10 4V4Z" stroke="white" stroke-linecap="round" stroke-linejoin="round"/>
</svg>