<svg xmlns="http://www.w3.org/2000/svg" width="32" height="32" viewBox="0 0 32 32" fill="none">
  <path fill-rule="evenodd" clip-rule="evenodd" d="M14.4745 17.5251C12.9145 15.9651 11.7385 14.2185 10.9572 12.4465C10.7919 12.0718 10.8892 11.6331 11.1785 11.3438L12.2705 10.2531C13.1652 9.35845 13.1652 8.09312 12.3839 7.31179L10.8185 5.74645C9.7772 4.70512 8.0892 4.70512 7.04787 5.74645L6.17854 6.61579C5.19054 7.60379 4.77854 9.02912 5.0452 10.4425C5.70387 13.9265 7.72787 17.7411 10.9932 21.0065C14.2585 24.2718 18.0732 26.2958 21.5572 26.9545C22.9705 27.2211 24.3959 26.8091 25.3839 25.8211L26.2519 24.9531C27.2932 23.9118 27.2932 22.2238 26.2519 21.1825L24.6879 19.6185C23.9065 18.8371 22.6399 18.8371 21.8599 19.6185L20.6559 20.8238C20.3665 21.1131 19.9279 21.2105 19.5532 21.0451C17.7812 20.2625 16.0345 19.0851 14.4745 17.5251Z" stroke="black" stroke-width="2.4" stroke-linecap="round" stroke-linejoin="round"/>
</svg>