<svg xmlns="http://www.w3.org/2000/svg" width="32" height="32" viewBox="0 0 32 32" fill="none">
  <path fill-rule="evenodd" clip-rule="evenodd" d="M24.5518 8.55188L20.7812 4.78121C20.2812 4.28121 19.6025 3.99988 18.8958 3.99988H9.33317C7.85984 3.99988 6.6665 5.19321 6.6665 6.66654V25.3332C6.6665 26.8065 7.85984 27.9999 9.33317 27.9999H22.6665C24.1398 27.9999 25.3332 26.8065 25.3332 25.3332V10.4372C25.3332 9.73054 25.0518 9.05188 24.5518 8.55188V8.55188Z" stroke="black" stroke-width="2" stroke-linecap="round" stroke-linejoin="round"/>
  <path d="M25.3332 10.6664H19.9998C19.2638 10.6664 18.6665 10.0691 18.6665 9.33309V3.99976" stroke="black" stroke-width="2" stroke-linecap="round" stroke-linejoin="round"/>
  <path d="M13.7866 22.0666H18.2133" stroke="black" stroke-width="2" stroke-linecap="round" stroke-linejoin="round"/>
  <path fill-rule="evenodd" clip-rule="evenodd" d="M14.4438 17.0012V15.4438C14.4438 15.0145 14.7918 14.6665 15.2212 14.6665H16.7785C17.2078 14.6665 17.5558 15.0145 17.5558 15.4438V17.0012C17.5558 17.4305 17.2078 17.7785 16.7785 17.7785H15.2212C14.7918 17.7772 14.4438 17.4292 14.4438 17.0012Z" stroke="black" stroke-width="2" stroke-linecap="round" stroke-linejoin="round"/>
  <path fill-rule="evenodd" clip-rule="evenodd" d="M10.6665 23.2225V21.6652C10.6665 21.2358 11.0145 20.8878 11.4438 20.8878H13.0012C13.4305 20.8878 13.7785 21.2358 13.7785 21.6652V23.2225C13.7785 23.6518 13.4305 23.9998 13.0012 23.9998H11.4438C11.0145 23.9998 10.6665 23.6518 10.6665 23.2225Z" stroke="black" stroke-width="2" stroke-linecap="round" stroke-linejoin="round"/>
  <path fill-rule="evenodd" clip-rule="evenodd" d="M18.2227 23.2225V21.6652C18.2227 21.2358 18.5707 20.8878 19 20.8878H20.5573C20.9867 20.8878 21.3347 21.2358 21.3347 21.6652V23.2225C21.3333 23.6518 20.9853 23.9998 20.556 23.9998H18.9987C18.5707 23.9998 18.2227 23.6518 18.2227 23.2225H18.2227Z" stroke="black" stroke-width="2" stroke-linecap="round" stroke-linejoin="round"/>
  <path d="M18.9865 20.8932L16.9731 17.7466" stroke="black" stroke-width="2" stroke-linecap="round" stroke-linejoin="round"/>
  <path d="M13.0132 20.8932L15.0265 17.7466" stroke="black" stroke-width="2" stroke-linecap="round" stroke-linejoin="round"/>
</svg>