<svg xmlns="http://www.w3.org/2000/svg" width="32" height="32" viewBox="0 0 32 32" fill="none">
<path d="M17.3335 14.9287L22.5459 9H21.3109L16.7829 14.1467L13.1691 9H9L14.466 16.7834L9 23H10.235L15.0137 17.5636L18.8309 23H23L17.3335 14.9287ZM15.6414 16.8517L15.0868 16.0762L10.6804 9.91102H12.5776L16.1347 14.8884L16.6871 15.6639L21.3103 22.1334H19.4131L15.6414 16.8517Z" fill="white"/>
<path fill-rule="evenodd" clip-rule="evenodd" d="M10 4H22.0053C25.316 4 28 6.684 28 9.99467V22.0067C28 25.316 25.316 28 22.0053 28H9.99467C6.684 28 4 25.316 4 22.0053V10C4 6.68667 6.68667 4 10 4V4Z" stroke="white" stroke-linecap="round" stroke-linejoin="round"/>
</svg>