<svg xmlns="http://www.w3.org/2000/svg" width="64" height="64" viewBox="0 0 64 64" fill="none">
  <path fill-rule="evenodd" clip-rule="evenodd" d="M15.6665 23H9.33317C7.86117 23 6.6665 24.1946 6.6665 25.6666V38.3333C6.6665 39.8053 7.86117 41 9.33317 41H15.6665L26.2772 49.9893C28.0105 51.4586 30.6665 50.2266 30.6665 47.9546V16.0453C30.6665 13.7733 28.0078 12.5413 26.2772 14.0106L15.6665 23Z" stroke="white" stroke-width="4" stroke-linecap="round" stroke-linejoin="round"/>
  <path d="M41.4321 42.6079C44.5308 40.6826 46.6668 36.6772 46.6668 32.0132C46.6668 27.3492 44.5308 23.3412 41.4321 21.3919" stroke="white" stroke-width="4" stroke-linecap="round" stroke-linejoin="round"/>
  <path d="M49.3468 50.8399C54.1682 46.6933 57.3335 39.8133 57.3335 32.0079C57.3335 24.1919 54.1628 17.3066 49.3335 13.1626" stroke="white" stroke-width="4" stroke-linecap="round" stroke-linejoin="round"/>
</svg>