<svg xmlns="http://www.w3.org/2000/svg" width="66" height="66" viewBox="0 0 66 66" fill="none">
  <path d="M20.9946 36.3347H45.0046" stroke="black" stroke-width="4" stroke-linecap="round" stroke-linejoin="round"/>
  <path d="M33.0004 36.3346V20.3279" stroke="black" stroke-width="4" stroke-linecap="round" stroke-linejoin="round"/>
  <path d="M41.0033 36.3347V25.6636" stroke="black" stroke-width="4" stroke-linecap="round" stroke-linejoin="round"/>
  <path d="M43.6717 57.01L41.0039 46.3389" stroke="black" stroke-width="4" stroke-linecap="round" stroke-linejoin="round"/>
  <path d="M22.3296 57.01L24.9974 46.3389" stroke="black" stroke-width="4" stroke-linecap="round" stroke-linejoin="round"/>
  <path fill-rule="evenodd" clip-rule="evenodd" d="M51.4751 46.3388H14.5264C11.4691 46.3388 8.99072 43.8604 8.99072 40.8032V14.5256C8.99072 11.4683 11.4691 8.98993 14.5264 8.98993H51.4724C52.941 8.98922 54.3497 9.57213 55.3884 10.6103C56.4271 11.6485 57.0107 13.057 57.0107 14.5256V40.8005C57.0114 42.2691 56.4285 43.6778 55.3903 44.7165C54.3521 45.7552 52.9437 46.3388 51.4751 46.3388Z" stroke="black" stroke-width="4" stroke-linecap="round" stroke-linejoin="round"/>
  <path d="M24.9965 36.3347V28.3314" stroke="black" stroke-width="4" stroke-linecap="round" stroke-linejoin="round"/>
</svg>