<svg xmlns="http://www.w3.org/2000/svg" width="64" height="64" viewBox="0 0 64 64" fill="none">
  <path fill-rule="evenodd" clip-rule="evenodd" d="M32 56V56C18.744 56 8 45.256 8 32V32C8 18.744 18.744 8 32 8V8C45.256 8 56 18.744 56 32V32C56 45.256 45.256 56 32 56Z" stroke="#323232" stroke-width="4" stroke-linecap="round" stroke-linejoin="round"/>
  <path d="M32.0002 45.3333V32H29.3335" stroke="#323232" stroke-width="4" stroke-linecap="round" stroke-linejoin="round"/>
  <path d="M31.3307 21.3334C30.9627 21.3334 30.664 21.632 30.6667 22C30.6667 22.368 30.9653 22.6667 31.3333 22.6667C31.7013 22.6667 32 22.368 32 22C32 21.632 31.7013 21.3334 31.3307 21.3334" stroke="#323232" stroke-width="4" stroke-linecap="round" stroke-linejoin="round"/>
</svg>