<svg xmlns="http://www.w3.org/2000/svg" width="64" height="64" viewBox="0 0 64 64" fill="none">
  <path fill-rule="evenodd" clip-rule="evenodd" d="M53.3332 34.7222V17.5183C53.3136 16.1561 52.2819 15.022 50.9276 14.8739C45.2691 14.4439 39.8442 12.4376 35.2676 9.08248C33.3282 7.63917 30.6716 7.63917 28.7322 9.08248C24.1555 12.4377 18.7306 14.4439 13.0722 14.8739C11.7178 15.0219 10.6861 16.1561 10.6665 17.5183V34.7222C10.6665 44.778 23.0668 52.2738 28.9696 55.2731C30.877 56.2441 33.1343 56.2422 35.0402 55.2679C40.9469 52.2657 53.3332 44.7881 53.3332 34.7222Z" stroke="black" stroke-width="4" stroke-linecap="round" stroke-linejoin="round"/>
  <path fill-rule="evenodd" clip-rule="evenodd" d="M22.6665 36.6667C22.6665 38.508 26.8452 40 31.9998 40C37.1545 40 41.3332 38.508 41.3332 36.6667V27.3333C41.3332 25.492 37.1545 24 31.9998 24C26.8452 24 22.6665 25.492 22.6665 27.3333V36.6667Z" stroke="black" stroke-width="4" stroke-linecap="round" stroke-linejoin="round"/>
  <path d="M41.3332 28.6667C41.3332 30.508 37.1545 32 31.9998 32C26.8452 32 22.6665 30.508 22.6665 28.6667" stroke="black" stroke-width="4" stroke-linecap="round" stroke-linejoin="round"/>
</svg>