<svg width="156" height="48" viewBox="0 0 156 48" fill="none" xmlns="http://www.w3.org/2000/svg">
<g id="Layer_1" clip-path="url(#clip0_11_260)">
<g id="Group 1">
<path id="Vector" d="M45 40.0632V4.93675C45 2.21026 42.7639 0 40.0055 0L39.9945 0C37.2361 0 35 2.21026 35 4.93675V40.0632C35 42.7897 37.2361 45 39.9945 45H40.0055C42.7639 45 45 42.7897 45 40.0632Z" fill="#CE1126"/>
<path id="Vector_2" opacity="0.9" d="M40.0632 0H4.93676C2.21026 0 0 2.2361 0 4.99446V5.00554C0 7.7639 2.21026 10 4.93676 10H40.0632C42.7897 10 45 7.7639 45 5.00554V4.99446C45 2.2361 42.7897 0 40.0632 0Z" fill="#0099B5"/>
<path id="Vector_3" d="M22.558 27.5697C25.3259 27.5697 27.5697 25.3259 27.5697 22.558C27.5697 19.7902 25.3259 17.5464 22.558 17.5464C19.7902 17.5464 17.5464 19.7902 17.5464 22.558C17.5464 25.3259 19.7902 27.5697 22.558 27.5697Z" fill="#CE1126"/>
<path id="Vector_4" d="M6.4809 45.116C9.24876 45.116 11.4926 42.8722 11.4926 40.1043C11.4926 37.3365 9.24876 35.0927 6.4809 35.0927C3.71303 35.0927 1.46924 37.3365 1.46924 40.1043C1.46924 42.8722 3.71303 45.116 6.4809 45.116Z" fill="#1EB53A"/>
</g>
<path id="Vector_5" d="M58.8896 48.0001C58.5826 48.0001 58.3413 47.7588 58.3413 47.4518V0.548322C58.3413 0.241262 58.5826 0 58.8896 0C59.1967 0 59.438 0.241262 59.438 0.548322V47.4518C59.438 47.7588 59.1967 48.0001 58.8896 48.0001Z" fill="black"/>
<g id="Group">
<path id="Vector_6" d="M72.0383 9.96841C72.5208 10.1987 73.0801 10.3193 73.7161 10.3193C74.3522 10.3193 74.9115 10.1987 75.394 9.96841C75.8765 9.73811 76.2494 9.40912 76.5126 8.98143C76.7758 8.5647 76.9074 8.07121 76.9074 7.51193V2.51123H75.2843V7.38033C75.2843 7.67642 75.2185 7.93962 75.0869 8.15895C74.9553 8.38924 74.7799 8.5647 74.5386 8.6963C74.3083 8.8279 74.0342 8.8937 73.7161 8.8937C73.3981 8.8937 73.124 8.8279 72.8937 8.6963C72.6634 8.5647 72.4769 8.38924 72.3453 8.15895C72.2137 7.92865 72.1479 7.66546 72.1479 7.38033V2.51123H70.5249V7.51193C70.5249 8.07121 70.6565 8.5647 70.9197 8.98143C71.1829 9.39815 71.5558 9.72715 72.0383 9.96841Z" fill="black"/>
<path id="Vector_7" d="M83.2571 8.93777H80.5045V8.8939L83.1584 5.48334V4.44153H78.4976V5.7246H81.2283V5.7575L78.3989 9.25579V10.2208H83.2571V8.93777Z" fill="black"/>
<path id="Vector_8" d="M86.3057 9.28849H86.3825C86.4593 9.45299 86.558 9.60651 86.7005 9.76005C86.8321 9.91358 87.0185 10.0452 87.2269 10.1439C87.4462 10.2426 87.7094 10.2974 88.0165 10.2974C88.4551 10.2974 88.8499 10.1877 89.2009 9.95744C89.5518 9.72715 89.8369 9.39815 90.0453 8.94853C90.2536 8.50987 90.3523 7.96155 90.3523 7.31453C90.3523 6.66751 90.2427 6.09726 90.0343 5.6586C89.8259 5.21994 89.5408 4.89095 89.1789 4.67162C88.828 4.45229 88.4332 4.34263 88.0165 4.34263C87.6985 4.34263 87.4243 4.39746 87.205 4.50712C86.9856 4.61679 86.8102 4.74838 86.6786 4.91288C86.547 5.07738 86.4373 5.23091 86.3715 5.38444H86.3277V2.51123H84.7266V10.2097H86.3057V9.28849ZM86.4373 6.42625C86.536 6.17402 86.6676 5.97662 86.854 5.84503C87.0295 5.70246 87.2488 5.63666 87.512 5.63666C87.7752 5.63666 87.9946 5.71343 88.181 5.85599C88.3565 5.99856 88.499 6.19595 88.5867 6.44818C88.6745 6.70041 88.7293 6.9965 88.7293 7.3255C88.7293 7.65449 88.6854 7.96155 88.5867 8.21378C88.488 8.46601 88.3565 8.67437 88.17 8.81693C87.9946 8.9595 87.7643 9.03626 87.512 9.03626C87.2598 9.03626 87.0405 8.97046 86.854 8.8279C86.6786 8.68533 86.536 8.48794 86.4373 8.23571C86.3386 7.98348 86.2948 7.67642 86.2948 7.33646C86.2948 6.9965 86.3386 6.70041 86.4373 6.43721V6.42625Z" fill="black"/>
<path id="Vector_9" d="M92.7319 9.96851C93.1596 10.2098 93.6751 10.3304 94.2673 10.3304C94.7388 10.3304 95.1665 10.2536 95.5284 10.1111C95.8903 9.96851 96.1864 9.76015 96.4276 9.49696C96.6579 9.23376 96.8115 8.9267 96.8882 8.56481L95.4078 8.46611C95.3529 8.60867 95.2762 8.72931 95.1665 8.83897C95.0568 8.93767 94.9362 9.01443 94.7827 9.06927C94.6401 9.1241 94.4756 9.14603 94.2892 9.14603C94.015 9.14603 93.7847 9.0912 93.5983 8.98153C93.4009 8.87187 93.2474 8.70737 93.1487 8.49901C93.039 8.29065 92.9842 8.04939 92.9842 7.75329H96.9211V7.31464C96.9211 6.82115 96.8553 6.39345 96.7128 6.03156C96.5702 5.66967 96.3838 5.36261 96.1315 5.12135C95.8903 4.88009 95.5942 4.69366 95.2652 4.57303C94.9362 4.4524 94.5853 4.3866 94.2015 4.3866C93.6312 4.3866 93.1377 4.50723 92.721 4.75946C92.3043 5.01168 91.9753 5.36261 91.745 5.81223C91.5147 6.26186 91.394 6.77728 91.394 7.38043C91.394 7.98359 91.5147 8.52094 91.745 8.9596C91.9753 9.40922 92.3043 9.74918 92.7319 9.99045V9.96851ZM93.5764 5.73547C93.7628 5.6258 93.9821 5.57097 94.2234 5.57097C94.4646 5.57097 94.662 5.6258 94.8375 5.7245C95.013 5.8232 95.1555 5.96576 95.2542 6.14123C95.3529 6.31669 95.4078 6.52505 95.4078 6.75535H92.9951C92.9951 6.54698 93.05 6.36056 93.1487 6.18509C93.2583 5.99866 93.4009 5.84513 93.5873 5.73547H93.5764Z" fill="black"/>
<path id="Vector_10" d="M99.7725 8.37827L100.211 7.88478L101.779 10.2206H103.655L101.406 6.94167L103.545 4.44132H101.714L99.8602 6.63461H99.7725V2.51123H98.1714V10.2206H99.7725V8.37827Z" fill="black"/>
<path id="Vector_11" d="M72.1373 21.0664C72.6746 21.3734 73.2887 21.5379 73.9796 21.5379C74.4731 21.5379 74.9118 21.4612 75.3066 21.3186C75.7013 21.1651 76.0413 20.9677 76.3264 20.7045C76.6116 20.4522 76.8419 20.1562 77.0064 19.8272C77.1709 19.4982 77.2805 19.1582 77.3244 18.8073H75.6794C75.6465 19.0047 75.5698 19.1911 75.482 19.3446C75.3833 19.5091 75.2627 19.6407 75.1201 19.7504C74.9776 19.8601 74.8131 19.9478 74.6266 20.0026C74.4402 20.0575 74.2428 20.0904 74.0235 20.0904C73.6397 20.0904 73.2887 19.9917 72.9926 19.8052C72.6965 19.6188 72.4663 19.3337 72.3018 18.9608C72.1373 18.588 72.0605 18.1274 72.0605 17.579C72.0605 17.0307 72.1373 16.5921 72.3018 16.2192C72.4663 15.8463 72.6965 15.5612 72.9926 15.3638C73.2887 15.1664 73.6397 15.0677 74.0345 15.0677C74.2538 15.0677 74.4621 15.1006 74.6486 15.1664C74.835 15.2322 75.0105 15.32 75.153 15.4406C75.2956 15.5612 75.4162 15.7038 75.5149 15.8683C75.6027 16.0328 75.6684 16.2302 75.7013 16.4385H77.3463C77.2915 15.9889 77.1708 15.5941 76.9844 15.2542C76.798 14.9142 76.5567 14.6181 76.2606 14.3768C75.9645 14.1356 75.6246 13.9601 75.2408 13.8285C74.8569 13.7079 74.4402 13.6421 74.0016 13.6421C73.3216 13.6421 72.7185 13.7956 72.1702 14.1027C71.6218 14.4097 71.2051 14.8594 70.8871 15.4516C70.5691 16.0437 70.4155 16.7566 70.4155 17.59C70.4155 18.4235 70.5691 19.1363 70.8871 19.7285C71.1941 20.3207 71.6218 20.7703 72.1702 21.0773L72.1373 21.0664Z" fill="black"/>
<path id="Vector_12" d="M83.0706 15.8357C82.7745 15.6602 82.4236 15.5725 82.0178 15.5725C81.5792 15.5725 81.2173 15.6712 80.9212 15.8686C80.6251 16.066 80.4167 16.3291 80.2851 16.6691H80.2193V13.7301H78.6621V21.4285H80.2632V18.0947C80.2632 17.8425 80.318 17.6342 80.4058 17.4587C80.4935 17.2832 80.6361 17.1516 80.8006 17.0529C80.9651 16.9652 81.1625 16.9104 81.3818 16.9104C81.7108 16.9104 81.963 17.0091 82.1385 17.2065C82.3249 17.4039 82.4126 17.678 82.4126 18.0399V21.4285H84.0137V17.7548C84.0137 17.3052 83.937 16.9213 83.7725 16.5923C83.608 16.2633 83.3667 16.0221 83.0706 15.8466V15.8357Z" fill="black"/>
<path id="Vector_13" d="M86.9087 13.5217C86.7442 13.3572 86.5358 13.2804 86.2946 13.2804C86.0533 13.2804 85.8559 13.3572 85.6804 13.5217C85.5159 13.6862 85.4282 13.8726 85.4282 14.0919C85.4282 14.3112 85.5159 14.5086 85.6804 14.6622C85.8449 14.8157 86.0533 14.9034 86.2946 14.9034C86.5358 14.9034 86.7332 14.8267 86.9087 14.6622C87.0842 14.4977 87.1609 14.3112 87.1609 14.0919C87.1609 13.8726 87.0732 13.6862 86.9087 13.5217Z" fill="black"/>
<path id="Vector_14" d="M87.0952 15.6492H85.4941V21.4285H87.0952V15.6492Z" fill="black"/>
<path id="Vector_15" d="M91.2842 16.9102C91.6022 16.9102 91.8544 17.0089 92.0409 17.2063C92.2273 17.4037 92.315 17.6778 92.315 18.0397V21.4284H93.9161V17.7546C93.9161 17.305 93.8284 16.9212 93.6639 16.5922C93.4994 16.2632 93.2691 16.0219 92.973 15.8464C92.6769 15.671 92.326 15.5833 91.9202 15.5833C91.4925 15.5833 91.1306 15.6819 90.8236 15.8793C90.5275 16.0767 90.3082 16.3399 90.1766 16.6799H90.1108V15.66H88.5864V21.4393H90.1875V18.1055C90.1875 17.8533 90.2314 17.6449 90.3301 17.4695C90.4178 17.294 90.5494 17.1624 90.7139 17.0637C90.8784 16.976 91.0648 16.9212 91.2842 16.9212V16.9102Z" fill="black"/>
<path id="Vector_16" d="M99.2789 21.3188C99.6408 21.1763 99.9369 20.9679 100.178 20.7047C100.408 20.4415 100.562 20.1345 100.639 19.7726L99.1582 19.6739C99.1034 19.8164 99.0266 19.9371 98.917 20.0467C98.8073 20.1454 98.6867 20.2222 98.5332 20.277C98.3906 20.3319 98.2261 20.3538 98.0397 20.3538C97.7655 20.3538 97.5352 20.299 97.3488 20.1893C97.1514 20.0796 96.9979 19.9151 96.8992 19.7068C96.7895 19.4984 96.7347 19.2572 96.7347 18.9611H100.672V18.5224C100.672 18.0289 100.606 17.6012 100.463 17.2393C100.321 16.8774 100.134 16.5704 99.882 16.3291C99.6408 16.0879 99.3447 15.9014 99.0157 15.7808C98.6867 15.6602 98.3358 15.5944 97.9519 15.5944C97.3817 15.5944 96.8882 15.715 96.4715 15.9672C96.0547 16.2194 95.7258 16.5704 95.4955 17.02C95.2652 17.4696 95.1445 17.985 95.1445 18.5882C95.1445 19.1914 95.2652 19.7287 95.4955 20.1674C95.7258 20.617 96.0547 20.9569 96.4824 21.1982C96.9101 21.4395 97.4146 21.5601 98.0177 21.5601C98.4893 21.5601 98.917 21.4833 99.2789 21.3408V21.3188ZM97.3378 16.9432C97.5242 16.8336 97.7436 16.7787 97.9848 16.7787C98.2261 16.7787 98.4235 16.8336 98.599 16.9323C98.7744 17.031 98.917 17.1735 99.0157 17.349C99.1144 17.5245 99.1692 17.7328 99.1692 17.9631H96.7566C96.7566 17.7547 96.8114 17.5683 96.9101 17.3929C97.0198 17.2064 97.1623 17.0529 97.3488 16.9432H97.3378Z" fill="black"/>
<path id="Vector_17" d="M106.44 18.6319C106.166 18.3797 105.749 18.1932 105.179 18.0726L104.137 17.8643C103.874 17.8094 103.677 17.7327 103.567 17.634C103.457 17.5353 103.402 17.4256 103.402 17.283C103.402 17.1076 103.49 16.976 103.655 16.8663C103.83 16.7676 104.038 16.7128 104.28 16.7128C104.466 16.7128 104.62 16.7457 104.762 16.8005C104.894 16.8663 105.003 16.9431 105.091 17.0418C105.179 17.1405 105.223 17.2611 105.256 17.3817L106.725 17.294C106.659 16.7676 106.407 16.3399 105.99 16.0329C105.574 15.7258 104.992 15.5723 104.269 15.5723C103.775 15.5723 103.348 15.649 102.975 15.7916C102.613 15.9342 102.328 16.1425 102.119 16.4167C101.922 16.6799 101.812 17.0089 101.812 17.3708C101.812 17.7985 101.944 18.1603 102.229 18.4345C102.503 18.7087 102.92 18.9061 103.49 19.0267L104.488 19.2241C104.74 19.2789 104.927 19.3447 105.047 19.4434C105.168 19.5421 105.234 19.6627 105.234 19.8053C105.234 19.9808 105.146 20.1233 104.971 20.233C104.795 20.3427 104.576 20.3975 104.291 20.3975C104.006 20.3975 103.775 20.3317 103.589 20.2111C103.402 20.0904 103.293 19.915 103.238 19.6737L101.659 19.7614C101.735 20.3098 101.999 20.7484 102.459 21.0664C102.909 21.3845 103.523 21.549 104.28 21.549C104.784 21.549 105.223 21.4722 105.607 21.3077C105.99 21.1432 106.297 20.9239 106.517 20.6388C106.736 20.3536 106.846 20.0246 106.846 19.6408C106.846 19.2241 106.703 18.8841 106.429 18.6319H106.44Z" fill="black"/>
<path id="Vector_18" d="M111.847 19.6739C111.792 19.8164 111.715 19.9371 111.605 20.0467C111.496 20.1454 111.375 20.2222 111.222 20.277C111.079 20.3319 110.915 20.3538 110.728 20.3538C110.454 20.3538 110.224 20.299 110.037 20.1893C109.84 20.0796 109.686 19.9151 109.588 19.7068C109.478 19.4984 109.423 19.2572 109.423 18.9611H113.36V18.5224C113.36 18.0289 113.294 17.6012 113.152 17.2393C113.009 16.8774 112.823 16.5704 112.571 16.3291C112.329 16.0879 112.033 15.9014 111.704 15.7808C111.375 15.6602 111.024 15.5944 110.64 15.5944C110.07 15.5944 109.577 15.715 109.16 15.9672C108.743 16.2194 108.414 16.5704 108.184 17.02C107.954 17.4696 107.833 17.985 107.833 18.5882C107.833 19.1914 107.954 19.7287 108.184 20.1674C108.414 20.617 108.743 20.9569 109.171 21.1982C109.599 21.4395 110.103 21.5601 110.706 21.5601C111.178 21.5601 111.605 21.4833 111.967 21.3408C112.329 21.1982 112.625 20.9898 112.867 20.7267C113.097 20.4635 113.25 20.1564 113.327 19.7945L111.847 19.6958V19.6739ZM110.026 16.9432C110.213 16.8336 110.432 16.7787 110.673 16.7787C110.915 16.7787 111.112 16.8336 111.287 16.9323C111.463 17.031 111.605 17.1735 111.704 17.349C111.803 17.5245 111.858 17.7328 111.858 17.9631H109.445C109.445 17.7547 109.5 17.5683 109.599 17.3929C109.708 17.2064 109.851 17.0529 110.037 16.9432H110.026Z" fill="black"/>
<path id="Vector_19" d="M72.773 24.9377L70.1191 32.6362H71.8628L72.4331 30.8816H75.2185L75.7888 32.6362H77.5324L74.8786 24.9377H72.784H72.773ZM72.8388 29.6094L73.7819 26.6924H73.8368L74.7799 29.6094H72.8279H72.8388Z" fill="black"/>
<path id="Vector_20" d="M81.7658 29.2914L80.724 29.083C80.4499 29.0282 80.2634 28.9514 80.1538 28.8527C80.0441 28.754 79.9893 28.6443 79.9893 28.5018C79.9893 28.3263 80.077 28.1947 80.2415 28.0851C80.417 27.9754 80.6253 27.9315 80.8666 27.9315C81.053 27.9315 81.2175 27.9644 81.3491 28.0193C81.4807 28.0741 81.5904 28.1618 81.6781 28.2605C81.7658 28.3592 81.8097 28.4798 81.8426 28.6005L83.3121 28.5127C83.2463 27.9864 82.9941 27.5587 82.5774 27.2516C82.1606 26.9445 81.5794 26.791 80.8556 26.791C80.3621 26.791 79.9344 26.8678 79.5616 27.0103C79.1997 27.1529 78.9146 27.3613 78.7062 27.6354C78.5088 27.8986 78.3991 28.2276 78.3991 28.5895C78.3991 29.0172 78.5307 29.3791 78.8159 29.6533C79.101 29.9274 79.5067 30.1248 80.077 30.2454L81.0749 30.4428C81.3272 30.4977 81.5136 30.5635 81.6342 30.6622C81.7549 30.7499 81.8207 30.8705 81.8207 31.0241C81.8207 31.1995 81.7329 31.3421 81.5575 31.4518C81.382 31.5614 81.1627 31.6162 80.8776 31.6162C80.5924 31.6162 80.3621 31.5504 80.1757 31.4298C79.9893 31.3092 79.8796 31.1337 79.8248 30.9034L78.2456 30.9912C78.3224 31.5395 78.5856 31.9781 79.0462 32.2962C79.4958 32.6142 80.1099 32.7787 80.8666 32.7787C81.371 32.7787 81.8097 32.7019 82.1935 32.5374C82.5773 32.3839 82.8844 32.1536 83.1037 31.8685C83.3231 31.5833 83.4327 31.2544 83.4327 30.8705C83.4327 30.4538 83.3011 30.1138 83.016 29.8616C82.7418 29.6094 82.3251 29.423 81.7658 29.3023V29.2914Z" fill="black"/>
<path id="Vector_21" d="M87.9177 29.2914L86.8759 29.083C86.6017 29.0282 86.4153 28.9514 86.3056 28.8527C86.196 28.754 86.1411 28.6443 86.1411 28.5018C86.1411 28.3263 86.2289 28.1947 86.3934 28.0851C86.5688 27.9754 86.7772 27.9315 87.0184 27.9315C87.2049 27.9315 87.3694 27.9644 87.501 28.0193C87.6326 28.0741 87.7422 28.1618 87.83 28.2605C87.9177 28.3592 87.9615 28.4798 87.9944 28.6005L89.464 28.5127C89.3982 27.9864 89.1459 27.5587 88.7292 27.2516C88.3125 26.9445 87.7313 26.791 87.0075 26.791C86.514 26.791 86.0863 26.8678 85.7134 27.0103C85.3515 27.1529 85.0664 27.3613 84.858 27.6354C84.6607 27.8986 84.551 28.2276 84.551 28.5895C84.551 29.0172 84.6826 29.3791 84.9677 29.6533C85.2419 29.9274 85.6586 30.1248 86.2289 30.2454L87.2268 30.4428C87.479 30.4977 87.6655 30.5635 87.7861 30.6622C87.9067 30.7499 87.9725 30.8705 87.9725 31.0241C87.9725 31.1995 87.8848 31.3421 87.7093 31.4518C87.5339 31.5614 87.3145 31.6162 87.0294 31.6162C86.7443 31.6162 86.514 31.5504 86.3276 31.4298C86.1411 31.3092 86.0315 31.1337 85.9766 30.9034L84.3975 30.9912C84.4742 31.5395 84.7374 31.9781 85.198 32.2962C85.6476 32.6142 86.2618 32.7787 87.0184 32.7787C87.5229 32.7787 87.9615 32.7019 88.3454 32.5374C88.7292 32.3839 89.0363 32.1536 89.2556 31.8685C89.4749 31.5833 89.5846 31.2544 89.5846 30.8705C89.5846 30.4538 89.453 30.1138 89.1679 29.8616C88.8937 29.6094 88.477 29.423 87.9177 29.3023V29.2914Z" fill="black"/>
<path id="Vector_22" d="M94.9364 27.1639C94.5087 26.9116 94.0043 26.791 93.4231 26.791C92.8418 26.791 92.3374 26.9116 91.9097 27.1639C91.482 27.4161 91.153 27.7561 90.9227 28.2057C90.6924 28.6553 90.5718 29.1707 90.5718 29.7739C90.5718 30.377 90.6924 30.8815 90.9227 31.3311C91.153 31.7807 91.482 32.1317 91.9097 32.3729C92.3374 32.6142 92.8418 32.7458 93.4231 32.7458C94.0043 32.7458 94.5087 32.6252 94.9364 32.3729C95.3641 32.1207 95.6931 31.7807 95.9234 31.3311C96.1537 30.8815 96.2634 30.3661 96.2634 29.7739C96.2634 29.1817 96.1427 28.6553 95.9234 28.2057C95.6931 27.7561 95.3641 27.4051 94.9364 27.1639ZM94.4978 30.6622C94.41 30.9254 94.2675 31.1337 94.092 31.2873C93.9165 31.4408 93.6972 31.5175 93.4231 31.5175C93.1489 31.5175 92.9296 31.4408 92.7431 31.2873C92.5567 31.1337 92.4251 30.9254 92.3374 30.6622C92.2496 30.399 92.2058 30.1029 92.2058 29.7629C92.2058 29.423 92.2496 29.1269 92.3374 28.8637C92.4251 28.6005 92.5677 28.3921 92.7431 28.2386C92.9296 28.0851 93.1489 28.0083 93.4231 28.0083C93.6972 28.0083 93.9056 28.0851 94.092 28.2386C94.2784 28.3921 94.41 28.6005 94.4978 28.8637C94.5855 29.1269 94.6294 29.423 94.6294 29.7629C94.6294 30.1029 94.5855 30.399 94.4978 30.6622Z" fill="black"/>
<path id="Vector_23" d="M99.4982 28.2386C99.6846 28.107 99.904 28.0412 100.145 28.0412C100.441 28.0412 100.672 28.1289 100.858 28.3044C101.044 28.4799 101.154 28.7102 101.198 29.0063H102.711C102.689 28.5566 102.569 28.1728 102.349 27.8438C102.13 27.5148 101.834 27.2516 101.45 27.0762C101.066 26.8897 100.628 26.802 100.123 26.802C99.5421 26.802 99.0376 26.9226 98.6099 27.1749C98.1822 27.4271 97.8642 27.778 97.6339 28.2276C97.4036 28.6773 97.2939 29.1927 97.2939 29.7849C97.2939 30.3771 97.4036 30.8815 97.6339 31.3311C97.8642 31.7808 98.1822 32.1317 98.6099 32.3839C99.0376 32.6361 99.5421 32.7568 100.134 32.7568C100.65 32.7568 101.088 32.669 101.472 32.4717C101.845 32.2852 102.141 32.022 102.36 31.693C102.58 31.364 102.689 30.9692 102.722 30.5306H101.209C101.176 30.728 101.121 30.9034 101.023 31.046C100.924 31.1886 100.803 31.2982 100.661 31.375C100.518 31.4518 100.354 31.4847 100.167 31.4847C99.9149 31.4847 99.7066 31.4189 99.5201 31.2873C99.3337 31.1557 99.1911 30.9583 99.0924 30.6951C98.9937 30.4319 98.9389 30.1248 98.9389 29.752C98.9389 29.3791 98.9937 29.083 99.0924 28.8198C99.1911 28.5566 99.3337 28.3702 99.5201 28.2386H99.4982Z" fill="black"/>
<path id="Vector_24" d="M105.552 26.8676H103.951V32.6469H105.552V26.8676Z" fill="black"/>
<path id="Vector_25" d="M104.751 24.4991C104.51 24.4991 104.312 24.5759 104.137 24.7404C103.972 24.9049 103.885 25.0913 103.885 25.3107C103.885 25.53 103.972 25.7274 104.137 25.8809C104.301 26.0344 104.51 26.1222 104.751 26.1222C104.992 26.1222 105.19 26.0454 105.365 25.8809C105.53 25.7274 105.617 25.53 105.617 25.3107C105.617 25.0913 105.53 24.9049 105.365 24.7404C105.201 24.5759 104.992 24.4991 104.751 24.4991Z" fill="black"/>
<path id="Vector_26" d="M111.199 27.2516C110.969 27.0981 110.706 26.9774 110.41 26.9007C110.114 26.8239 109.807 26.791 109.489 26.791C109.028 26.791 108.622 26.8568 108.271 26.9994C107.921 27.1419 107.635 27.3393 107.416 27.5916C107.197 27.8438 107.043 28.1509 106.977 28.5018L108.458 28.6224C108.513 28.436 108.622 28.2715 108.798 28.1509C108.973 28.0193 109.193 27.9644 109.489 27.9644C109.763 27.9644 109.971 28.0302 110.125 28.1618C110.278 28.2934 110.344 28.4798 110.344 28.7101V28.7321C110.344 28.8527 110.3 28.9514 110.202 29.0062C110.114 29.072 109.96 29.1159 109.752 29.1488C109.544 29.1817 109.28 29.2146 108.94 29.2475C108.655 29.2694 108.381 29.3243 108.118 29.3901C107.855 29.4559 107.624 29.5546 107.427 29.6862C107.23 29.8178 107.065 29.9932 106.945 30.2125C106.824 30.4319 106.769 30.6951 106.769 31.0241C106.769 31.4079 106.857 31.7259 107.021 31.9781C107.186 32.2304 107.416 32.4278 107.701 32.5484C107.986 32.68 108.315 32.7458 108.688 32.7458C108.973 32.7458 109.226 32.7019 109.445 32.6361C109.664 32.5594 109.851 32.4497 110.004 32.3181C110.158 32.1865 110.278 32.022 110.377 31.8465H110.421V32.6471H111.934V28.754C111.934 28.414 111.868 28.118 111.737 27.8657C111.605 27.6245 111.419 27.4161 111.189 27.2626L111.199 27.2516ZM110.355 30.5744C110.355 30.7718 110.3 30.9583 110.202 31.1228C110.103 31.2873 109.96 31.4079 109.774 31.5066C109.598 31.6053 109.39 31.6491 109.149 31.6491C108.907 31.6491 108.699 31.5943 108.546 31.4737C108.381 31.364 108.304 31.1886 108.304 30.9802C108.304 30.8267 108.348 30.706 108.425 30.6073C108.502 30.5086 108.611 30.4209 108.754 30.3661C108.897 30.3003 109.061 30.2674 109.247 30.2345C109.335 30.2235 109.434 30.2125 109.544 30.1906C109.653 30.1796 109.763 30.1577 109.862 30.1358C109.971 30.1138 110.07 30.0919 110.158 30.059C110.245 30.0371 110.311 30.0042 110.366 29.9713V30.5854L110.355 30.5744Z" fill="black"/>
<path id="Vector_27" d="M116.146 31.4077C116.069 31.4187 115.992 31.4296 115.915 31.4296C115.806 31.4296 115.718 31.4077 115.63 31.3858C115.542 31.3639 115.488 31.2981 115.444 31.2103C115.4 31.1336 115.378 31.0129 115.378 30.8704V28.0739H116.464V26.8676H115.378V25.4858H113.777V26.8676H112.987V28.0739H113.777V31.0787C113.777 31.4516 113.854 31.7696 114.018 32.0218C114.183 32.2741 114.402 32.4495 114.698 32.5702C114.994 32.6908 115.323 32.7347 115.707 32.7237C115.915 32.7237 116.091 32.6908 116.233 32.6579C116.376 32.625 116.497 32.5921 116.573 32.5702L116.321 31.3748C116.321 31.3748 116.222 31.3967 116.146 31.4077Z" fill="black"/>
<path id="Vector_28" d="M119.326 26.8676H117.725V32.6469H119.326V26.8676Z" fill="black"/>
<path id="Vector_29" d="M118.525 24.4991C118.284 24.4991 118.086 24.5759 117.911 24.7404C117.746 24.9049 117.659 25.0913 117.659 25.3107C117.659 25.53 117.746 25.7274 117.911 25.8809C118.075 26.0344 118.284 26.1222 118.525 26.1222C118.766 26.1222 118.964 26.0454 119.139 25.8809C119.304 25.7274 119.391 25.53 119.391 25.3107C119.391 25.0913 119.304 24.9049 119.139 24.7404C118.975 24.5759 118.766 24.4991 118.525 24.4991Z" fill="black"/>
<path id="Vector_30" d="M124.929 27.1639C124.501 26.9116 123.997 26.791 123.416 26.791C122.835 26.791 122.33 26.9116 121.902 27.1639C121.475 27.4161 121.146 27.7561 120.915 28.2057C120.685 28.6553 120.564 29.1707 120.564 29.7739C120.564 30.377 120.685 30.8815 120.915 31.3311C121.146 31.7807 121.475 32.1317 121.902 32.3729C122.33 32.6142 122.835 32.7458 123.416 32.7458C123.997 32.7458 124.501 32.6252 124.929 32.3729C125.357 32.1207 125.686 31.7807 125.916 31.3311C126.146 30.8815 126.267 30.3661 126.267 29.7739C126.267 29.1817 126.146 28.6553 125.916 28.2057C125.686 27.7561 125.357 27.4051 124.929 27.1639ZM124.49 30.6622C124.403 30.9254 124.26 31.1337 124.085 31.2873C123.909 31.4408 123.69 31.5175 123.416 31.5175C123.142 31.5175 122.922 31.4408 122.736 31.2873C122.549 31.1337 122.418 30.9254 122.33 30.6622C122.242 30.399 122.198 30.1029 122.198 29.7629C122.198 29.423 122.242 29.1269 122.33 28.8637C122.418 28.6005 122.56 28.3921 122.736 28.2386C122.911 28.0851 123.142 28.0083 123.416 28.0083C123.69 28.0083 123.898 28.0851 124.085 28.2386C124.26 28.3921 124.403 28.6005 124.49 28.8637C124.578 29.1269 124.622 29.423 124.622 29.7629C124.622 30.1029 124.578 30.399 124.49 30.6622Z" fill="black"/>
<path id="Vector_31" d="M132.595 27.7999C132.431 27.4709 132.2 27.2297 131.904 27.0542C131.608 26.8787 131.257 26.791 130.851 26.791C130.424 26.791 130.062 26.8897 129.755 27.0871C129.459 27.2845 129.239 27.5477 129.108 27.8877H129.042V26.8678H127.518V32.6471H129.119V29.3133C129.119 29.0611 129.163 28.8527 129.261 28.6772C129.349 28.5018 129.481 28.3702 129.645 28.2715C129.81 28.1838 129.996 28.1289 130.215 28.1289C130.533 28.1289 130.786 28.2276 130.972 28.425C131.158 28.6224 131.246 28.8966 131.246 29.2585V32.6471H132.847V28.9733C132.847 28.5237 132.76 28.1399 132.595 27.8109V27.7999Z" fill="black"/>
</g>
<g id="Group_2">
<path id="Vector_32" d="M70.5142 40.1702H70.9967V37.6369H71.6108V37.2312H70.9967V37.0228C70.9967 36.8254 71.0406 36.6938 71.1283 36.6061C71.216 36.5184 71.3696 36.4855 71.5779 36.4855V36.0797C71.2051 36.0797 70.9309 36.1565 70.7664 36.31C70.6019 36.4635 70.5142 36.7048 70.5142 37.0338V37.2422H70.1304V37.6479H70.5142V40.1812V40.1702Z" fill="black"/>
<path id="Vector_33" d="M74.3304 40.0279C74.5607 39.9073 74.7362 39.7208 74.8787 39.4906C75.0213 39.2603 75.0761 38.9971 75.0761 38.69C75.0761 38.3829 75.0103 38.1197 74.8787 37.8895C74.7471 37.6592 74.5717 37.4837 74.3414 37.3631C74.1111 37.2424 73.8698 37.1766 73.5847 37.1766C73.2996 37.1766 73.0583 37.2424 72.828 37.3631C72.5977 37.4837 72.4223 37.6592 72.2907 37.8895C72.1591 38.1197 72.0933 38.3829 72.0933 38.69C72.0933 38.9971 72.1591 39.2603 72.2797 39.4906C72.4003 39.7208 72.5758 39.8963 72.8061 40.0279C73.0364 40.1595 73.2776 40.2143 73.5518 40.2143C73.826 40.2143 74.0782 40.1485 74.3085 40.0279H74.3304ZM72.7403 39.3041C72.6526 39.1396 72.6087 38.9422 72.6087 38.701C72.6087 38.4597 72.6526 38.2623 72.7403 38.0978C72.828 37.9333 72.9486 37.8127 73.0912 37.7359C73.2338 37.6592 73.3983 37.6153 73.5847 37.6153C73.7711 37.6153 73.9247 37.6592 74.0672 37.7359C74.2098 37.8127 74.3414 37.9443 74.4291 38.0978C74.5168 38.2623 74.5717 38.4597 74.5717 38.701C74.5717 38.9422 74.5278 39.1396 74.4291 39.3041C74.3304 39.4686 74.2098 39.5893 74.0563 39.677C73.9027 39.7647 73.7382 39.7976 73.5628 39.7976C73.3873 39.7976 73.2228 39.7537 73.0802 39.677C72.9377 39.6002 72.817 39.4796 72.7293 39.3151L72.7403 39.3041Z" fill="black"/>
<path id="Vector_34" d="M77.2586 37.6917V37.1873C77.0283 37.1873 76.8419 37.2311 76.6774 37.3298C76.5129 37.4285 76.3923 37.5492 76.3155 37.7246V37.2531H75.833V40.1921H76.3155V38.591C76.3155 37.9988 76.5897 37.7027 77.138 37.7027H77.2696L77.2586 37.6917Z" fill="black"/>
<path id="Vector_35" d="M79.5721 39.3699C79.5721 39.655 79.6379 39.8634 79.7804 39.984C79.912 40.1046 80.1204 40.1704 80.3946 40.1704H80.8332V39.7537H80.4713C80.3178 39.7537 80.2191 39.7208 80.1533 39.666C80.0985 39.6111 80.0656 39.5015 80.0656 39.3589V37.6262H80.8332V37.2205H80.0656V36.4857H79.583V37.2205H79.1992V37.6262H79.583V39.3589L79.5721 39.3699Z" fill="black"/>
<path id="Vector_36" d="M83.6741 40.1705H84.1566V38.4378C84.1566 38.1637 84.1018 37.9334 84.0031 37.747C83.9044 37.5605 83.7618 37.418 83.5864 37.3193C83.4109 37.2206 83.2135 37.1767 82.9832 37.1767C82.7749 37.1767 82.5775 37.2206 82.413 37.2973C82.2375 37.3851 82.1059 37.4947 82.0182 37.6483V36.2007H81.5356V40.1596H82.0182V38.5365C82.0182 38.2295 82.0949 37.9992 82.2485 37.8347C82.402 37.6702 82.5994 37.5934 82.8626 37.5934C83.1258 37.5934 83.3122 37.6702 83.4657 37.8237C83.6083 37.9773 83.6851 38.2075 83.6851 38.4927V40.1486L83.6741 40.1705Z" fill="black"/>
<path id="Vector_37" d="M87.1502 39.2712C87.0953 39.4357 86.9966 39.5673 86.8541 39.666C86.7115 39.7647 86.536 39.8086 86.3277 39.8086C86.0755 39.8086 85.8561 39.7318 85.6697 39.5673C85.4833 39.4028 85.3955 39.1835 85.3736 38.8874H87.7204C87.7204 38.7887 87.7314 38.69 87.7314 38.5913C87.7314 38.3281 87.6765 38.0868 87.5559 37.8675C87.4353 37.6592 87.2708 37.4837 87.0624 37.3631C86.8541 37.2424 86.6018 37.1766 86.3277 37.1766C86.0535 37.1766 85.7903 37.2424 85.571 37.3631C85.3517 37.4837 85.1762 37.6592 85.0556 37.8895C84.9349 38.1197 84.8691 38.3829 84.8691 38.69C84.8691 38.9971 84.9349 39.2603 85.0556 39.4906C85.1762 39.7208 85.3517 39.8963 85.571 40.0279C85.7903 40.1595 86.0425 40.2143 86.3167 40.2143C86.6676 40.2143 86.9637 40.1266 87.194 39.9511C87.4243 39.7757 87.5888 39.5454 87.6656 39.2603H87.1392L87.1502 39.2712ZM85.6807 37.8456C85.8561 37.6921 86.0645 37.6153 86.3057 37.6153C86.4812 37.6153 86.6347 37.6482 86.7773 37.714C86.9199 37.7798 87.0295 37.8895 87.1063 38.021C87.194 38.1526 87.2269 38.3171 87.2269 38.5036H85.3736C85.3955 38.2294 85.4942 38.0101 85.6697 37.8456H85.6807Z" fill="black"/>
<path id="Vector_38" d="M92.9293 39.304C93.0828 39.0298 93.1706 38.6899 93.1706 38.306C93.1706 37.9222 93.0938 37.5932 92.9293 37.3081C92.7648 37.023 92.5455 36.8036 92.2494 36.6611C91.9533 36.5076 91.6024 36.4308 91.1966 36.4308H90.0342V40.1594H91.1966C91.6024 40.1594 91.9533 40.0826 92.2494 39.94C92.5455 39.7975 92.7758 39.5782 92.9293 39.293V39.304ZM91.1857 39.7646H90.5057V36.8256H91.1857C91.6682 36.8256 92.0301 36.9572 92.2823 37.2204C92.5345 37.4836 92.6661 37.8455 92.6661 38.306C92.6661 38.7666 92.5345 39.1285 92.2823 39.3808C92.0301 39.633 91.6572 39.7646 91.1747 39.7646H91.1857Z" fill="black"/>
<path id="Vector_39" d="M96.5374 39.2712H96.011C95.9562 39.4357 95.8575 39.5673 95.7149 39.666C95.5723 39.7647 95.3969 39.8086 95.1885 39.8086C94.9363 39.8086 94.717 39.7318 94.5305 39.5673C94.3441 39.4028 94.2564 39.1835 94.2344 38.8874H96.5813C96.5813 38.7887 96.5922 38.69 96.5922 38.5913C96.5922 38.3281 96.5374 38.0868 96.4168 37.8675C96.2961 37.6592 96.1316 37.4837 95.9233 37.3631C95.7149 37.2424 95.4627 37.1766 95.1885 37.1766C94.9144 37.1766 94.6512 37.2424 94.4318 37.3631C94.2125 37.4837 94.037 37.6592 93.9164 37.8895C93.7958 38.1197 93.73 38.3829 93.73 38.69C93.73 38.9971 93.7958 39.2603 93.9164 39.4906C94.037 39.7208 94.2125 39.8963 94.4318 40.0279C94.6512 40.1595 94.9034 40.2143 95.1775 40.2143C95.5285 40.2143 95.8246 40.1266 96.0549 39.9511C96.2852 39.7757 96.4497 39.5454 96.5264 39.2603L96.5374 39.2712ZM94.5415 37.8456C94.717 37.6921 94.9253 37.6153 95.1666 37.6153C95.342 37.6153 95.4956 37.6482 95.6381 37.714C95.7807 37.7798 95.8904 37.8895 95.9671 38.021C96.0439 38.1526 96.0878 38.3171 96.0878 38.5036H94.2344C94.2564 38.2294 94.3551 38.0101 94.5305 37.8456H94.5415Z" fill="black"/>
<path id="Vector_40" d="M98.7088 40.1702L99.8603 37.2422H99.3449L98.4347 39.7206L97.5244 37.2422H96.998L98.1495 40.1702H98.7088Z" fill="black"/>
<path id="Vector_41" d="M102.602 39.951C102.832 39.7755 102.997 39.5452 103.074 39.2601H102.547C102.492 39.4246 102.394 39.5562 102.251 39.6549C102.108 39.7536 101.933 39.7975 101.725 39.7975C101.472 39.7975 101.253 39.7207 101.067 39.5562C100.88 39.3917 100.793 39.1724 100.771 38.8763H103.117C103.117 38.7776 103.128 38.6789 103.128 38.5802C103.128 38.317 103.074 38.0757 102.953 37.8564C102.832 37.6481 102.668 37.4726 102.459 37.352C102.251 37.2313 101.999 37.1655 101.725 37.1655C101.45 37.1655 101.187 37.2313 100.968 37.352C100.749 37.4726 100.573 37.6481 100.453 37.8783C100.332 38.1086 100.266 38.3718 100.266 38.6789C100.266 38.986 100.332 39.2492 100.453 39.4794C100.573 39.7097 100.749 39.8852 100.968 40.0168C101.187 40.1484 101.44 40.2032 101.714 40.2032C102.065 40.2032 102.361 40.1155 102.591 39.94L102.602 39.951ZM101.078 37.8345C101.253 37.681 101.461 37.6042 101.703 37.6042C101.878 37.6042 102.032 37.6371 102.174 37.7029C102.317 37.7687 102.427 37.8783 102.503 38.0099C102.58 38.1415 102.624 38.306 102.624 38.4925H100.771C100.793 38.2183 100.891 37.999 101.067 37.8345H101.078Z" fill="black"/>
<path id="Vector_42" d="M104.367 36.2113H103.885V40.1702H104.367V36.2113Z" fill="black"/>
<path id="Vector_43" d="M107.361 37.3737C107.131 37.2531 106.89 37.1873 106.605 37.1873C106.32 37.1873 106.078 37.2531 105.848 37.3737C105.618 37.4943 105.442 37.6698 105.311 37.9001C105.179 38.1304 105.113 38.3936 105.113 38.7006C105.113 39.0077 105.179 39.2709 105.3 39.5012C105.431 39.7315 105.596 39.9069 105.826 40.0385C106.045 40.1592 106.298 40.225 106.572 40.225C106.846 40.225 107.109 40.1592 107.329 40.0385C107.548 39.9179 107.734 39.7315 107.877 39.5012C108.019 39.2709 108.074 39.0077 108.074 38.7006C108.074 38.3936 108.008 38.1304 107.877 37.9001C107.745 37.6698 107.57 37.4943 107.339 37.3737H107.361ZM107.449 39.3038C107.35 39.4683 107.23 39.5889 107.076 39.6766C106.923 39.7644 106.758 39.7973 106.583 39.7973C106.407 39.7973 106.243 39.7534 106.1 39.6766C105.958 39.5999 105.837 39.4792 105.749 39.3147C105.662 39.1502 105.618 38.9529 105.618 38.7116C105.618 38.4703 105.662 38.2729 105.749 38.1084C105.837 37.9439 105.958 37.8233 106.111 37.7465C106.254 37.6698 106.418 37.6259 106.605 37.6259C106.791 37.6259 106.945 37.6698 107.087 37.7465C107.23 37.8233 107.361 37.9549 107.449 38.1084C107.537 38.262 107.592 38.4703 107.592 38.7116C107.592 38.9529 107.548 39.1502 107.449 39.3147V39.3038Z" fill="black"/>
<path id="Vector_44" d="M112.976 37.3298C112.8 37.2311 112.592 37.1873 112.362 37.1873C112.131 37.1873 111.923 37.2421 111.726 37.3627C111.528 37.4833 111.397 37.6369 111.32 37.8452C111.232 37.6259 111.09 37.4724 110.892 37.3627C110.695 37.2531 110.486 37.1982 110.234 37.1982C110.037 37.1982 109.861 37.2421 109.697 37.3189C109.532 37.4066 109.401 37.5162 109.313 37.6698V37.2421H108.831V40.1811H109.313V38.569C109.313 38.262 109.39 38.0317 109.543 37.8672C109.697 37.7027 109.894 37.6259 110.147 37.6259C110.399 37.6259 110.585 37.7027 110.739 37.8562C110.892 38.0097 110.958 38.24 110.958 38.5252V40.1811H111.441V38.569C111.441 38.262 111.517 38.0317 111.671 37.8672C111.824 37.7027 112.022 37.6259 112.274 37.6259C112.526 37.6259 112.713 37.7027 112.866 37.8562C113.02 38.0097 113.086 38.24 113.086 38.5252V40.1811H113.568V38.4484C113.568 38.1742 113.513 37.9439 113.415 37.7575C113.316 37.5711 113.173 37.4285 112.987 37.3298H112.976Z" fill="black"/>
<path id="Vector_45" d="M116.255 39.655C116.113 39.7537 115.937 39.7976 115.729 39.7976C115.477 39.7976 115.257 39.7208 115.071 39.5563C114.885 39.3918 114.797 39.1725 114.775 38.8764H117.122C117.122 38.7777 117.133 38.679 117.133 38.5803C117.133 38.3171 117.078 38.0759 116.957 37.8565C116.837 37.6482 116.672 37.4727 116.464 37.3521C116.255 37.2315 116.003 37.1656 115.729 37.1656C115.455 37.1656 115.192 37.2315 114.972 37.3521C114.753 37.4727 114.578 37.6482 114.457 37.8785C114.336 38.1088 114.271 38.372 114.271 38.679C114.271 38.9861 114.336 39.2493 114.457 39.4796C114.578 39.7099 114.753 39.8853 114.972 40.0169C115.192 40.1485 115.444 40.2034 115.718 40.2034C116.069 40.2034 116.365 40.1156 116.595 39.9402C116.826 39.7647 116.99 39.5344 117.067 39.2493H116.541C116.486 39.4138 116.387 39.5454 116.244 39.6441L116.255 39.655ZM115.082 37.8346C115.257 37.6811 115.466 37.6043 115.707 37.6043C115.883 37.6043 116.036 37.6372 116.179 37.703C116.321 37.7688 116.431 37.8785 116.508 38.0101C116.584 38.1417 116.628 38.3062 116.628 38.4926H114.775C114.797 38.2184 114.896 37.9991 115.071 37.8346H115.082Z" fill="black"/>
<path id="Vector_46" d="M119.315 37.1873C119.117 37.1873 118.931 37.2311 118.766 37.3079C118.602 37.3847 118.47 37.5053 118.372 37.6588V37.2421H117.889V40.1811H118.372V38.5581C118.372 38.251 118.448 38.0207 118.602 37.8562C118.756 37.6917 118.953 37.6149 119.216 37.6149C119.479 37.6149 119.666 37.6917 119.819 37.8452C119.973 37.9988 120.039 38.2291 120.039 38.5142V40.1701H120.521V38.4374C120.521 38.0317 120.411 37.7136 120.192 37.5053C119.973 37.286 119.677 37.1873 119.326 37.1873H119.315Z" fill="black"/>
<path id="Vector_47" d="M122.78 39.7537H122.418C122.265 39.7537 122.166 39.7208 122.1 39.666C122.034 39.6111 122.012 39.5015 122.012 39.3589V37.6262H122.78V37.2205H122.012V36.4857H121.53V37.2205H121.146V37.6262H121.53V39.3589C121.53 39.6441 121.596 39.8524 121.738 39.973C121.881 40.0937 122.078 40.1595 122.352 40.1595H122.791V39.7428L122.78 39.7537Z" fill="black"/>
<path id="Vector_48" d="M127.605 39.5012C127.737 39.2709 127.803 39.0077 127.803 38.7006C127.803 38.3936 127.737 38.1304 127.605 37.9001C127.474 37.6698 127.298 37.4943 127.068 37.3737C126.838 37.2531 126.596 37.1873 126.311 37.1873C126.026 37.1873 125.785 37.2531 125.555 37.3737C125.324 37.4943 125.149 37.6698 125.017 37.9001C124.886 38.1304 124.82 38.3936 124.82 38.7006C124.82 39.0077 124.886 39.2709 125.006 39.5012C125.138 39.7315 125.302 39.9069 125.533 40.0385C125.752 40.1592 126.004 40.225 126.278 40.225C126.553 40.225 126.816 40.1592 127.035 40.0385C127.254 39.9179 127.441 39.7315 127.583 39.5012H127.605ZM127.167 39.3038C127.068 39.4683 126.947 39.5889 126.794 39.6766C126.64 39.7644 126.476 39.7973 126.3 39.7973C126.125 39.7973 125.96 39.7534 125.818 39.6766C125.675 39.5999 125.555 39.4792 125.467 39.3147C125.379 39.1502 125.335 38.9529 125.335 38.7116C125.335 38.4703 125.379 38.2729 125.467 38.1084C125.555 37.9439 125.675 37.8233 125.829 37.7465C125.971 37.6698 126.136 37.6259 126.322 37.6259C126.509 37.6259 126.662 37.6698 126.805 37.7465C126.947 37.8233 127.079 37.9549 127.167 38.1084C127.254 38.262 127.309 38.4703 127.309 38.7116C127.309 38.9529 127.265 39.1502 127.167 39.3147V39.3038Z" fill="black"/>
<path id="Vector_49" d="M128.647 40.1703H129.13V37.6371H129.744V37.2313H129.13V37.0229C129.13 36.8255 129.173 36.694 129.261 36.6062C129.349 36.5185 129.502 36.4856 129.711 36.4856V36.0798C129.338 36.0798 129.064 36.1566 128.899 36.3101C128.724 36.4637 128.647 36.7049 128.647 37.0339V37.2423H128.263V37.648H128.647V40.1813V40.1703Z" fill="black"/>
<path id="Vector_50" d="M70.4263 45.8398H70.9088V44.1619H72.2248V43.7671H70.9088V42.506H72.5318V42.1112H70.4263V45.8398Z" fill="black"/>
<path id="Vector_51" d="M75.2847 43.0435C75.0544 42.9229 74.8132 42.8571 74.5281 42.8571C74.2429 42.8571 74.0017 42.9229 73.7714 43.0435C73.5411 43.1641 73.3656 43.3396 73.234 43.5699C73.1024 43.8002 73.0366 44.0634 73.0366 44.3704C73.0366 44.6775 73.1024 44.9407 73.223 45.171C73.3437 45.4013 73.5191 45.5767 73.7494 45.7083C73.9797 45.8399 74.221 45.8948 74.4952 45.8948C74.7693 45.8948 75.0215 45.829 75.2518 45.7083C75.4821 45.5877 75.6576 45.4013 75.8002 45.171C75.9427 44.9407 75.9976 44.6775 75.9976 44.3704C75.9976 44.0634 75.9318 43.8002 75.8002 43.5699C75.6686 43.3396 75.4931 43.1641 75.2628 43.0435H75.2847ZM75.3725 44.9736C75.2738 45.1381 75.1531 45.2587 74.9996 45.3464C74.8461 45.4342 74.6816 45.4671 74.5061 45.4671C74.3307 45.4671 74.1662 45.4232 74.0236 45.3464C73.881 45.2697 73.7604 45.149 73.6727 44.9845C73.5849 44.82 73.5411 44.6227 73.5411 44.3814C73.5411 44.1401 73.5849 43.9427 73.6727 43.7782C73.7604 43.6137 73.881 43.4931 74.0236 43.4163C74.1662 43.3396 74.3307 43.2957 74.5171 43.2957C74.7035 43.2957 74.857 43.3396 74.9996 43.4163C75.1422 43.4931 75.2738 43.6247 75.3615 43.7782C75.4492 43.9427 75.5041 44.1401 75.5041 44.3814C75.5041 44.6227 75.4602 44.82 75.3615 44.9845L75.3725 44.9736Z" fill="black"/>
<path id="Vector_52" d="M77.2477 43.3834V42.9119H76.7651V45.8509H77.2477V44.2498C77.2477 43.6576 77.5218 43.3615 78.0701 43.3615H78.2017V42.8571C77.9714 42.8571 77.785 42.9009 77.6205 42.9996C77.456 43.0983 77.3354 43.2189 77.2586 43.3944L77.2477 43.3834Z" fill="black"/>
<path id="Vector_53" d="M80.8774 43.0435C80.658 42.9229 80.4168 42.8571 80.1426 42.8571C79.8685 42.8571 79.6053 42.9229 79.3859 43.0435C79.1666 43.1641 78.9911 43.3396 78.8705 43.5699C78.7499 43.8002 78.6841 44.0634 78.6841 44.3704C78.6841 44.6775 78.7499 44.9407 78.8705 45.171C78.9911 45.4013 79.1666 45.5767 79.3859 45.7083C79.6053 45.8399 79.8575 45.8948 80.1317 45.8948C80.4826 45.8948 80.7787 45.807 81.009 45.6316C81.2393 45.4561 81.4038 45.2258 81.4805 44.9407H80.9541C80.8993 45.1052 80.8006 45.2368 80.658 45.3355C80.5155 45.4342 80.34 45.478 80.1317 45.478C79.8794 45.478 79.6601 45.4013 79.4737 45.2368C79.2872 45.0723 79.1995 44.8529 79.1776 44.5569H81.5244C81.5244 44.4582 81.5354 44.3595 81.5354 44.2608C81.5354 43.9976 81.4805 43.7563 81.3599 43.537C81.2393 43.3286 81.0748 43.1531 80.8664 43.0325L80.8774 43.0435ZM79.1885 44.1621C79.2105 43.8879 79.3092 43.6686 79.4846 43.5041C79.6601 43.3505 79.8685 43.2738 80.1097 43.2738C80.2852 43.2738 80.4387 43.3067 80.5813 43.3725C80.7238 43.4383 80.8335 43.5479 80.9103 43.6795C80.998 43.8111 81.0309 43.9756 81.0309 44.1621H79.1776H79.1885Z" fill="black"/>
<path id="Vector_54" d="M82.5443 41.7714C82.4566 41.7714 82.3689 41.8043 82.314 41.8701C82.2592 41.9359 82.2153 42.0126 82.2153 42.1004C82.2153 42.1881 82.2482 42.2758 82.314 42.3306C82.3798 42.3855 82.4566 42.4293 82.5443 42.4293C82.6321 42.4293 82.7088 42.3964 82.7746 42.3306C82.8404 42.2649 82.8623 42.1881 82.8623 42.1004C82.8623 42.0126 82.8295 41.9249 82.7746 41.8701C82.7088 41.8043 82.6321 41.7714 82.5443 41.7714Z" fill="black"/>
<path id="Vector_55" d="M82.775 42.9119H82.2925V45.8509H82.775V42.9119Z" fill="black"/>
<path id="Vector_56" d="M86.0209 43.4383C85.9331 43.2738 85.7906 43.1312 85.5932 43.0215C85.4067 42.9119 85.1764 42.8571 84.9242 42.8571C84.672 42.8571 84.4307 42.9229 84.2114 43.0435C84.003 43.1641 83.8276 43.3396 83.7069 43.5699C83.5863 43.8002 83.5205 44.0634 83.5205 44.3595C83.5205 44.6556 83.5863 44.9187 83.7069 45.149C83.8276 45.3793 83.9921 45.5658 84.2114 45.6864C84.4198 45.818 84.661 45.8838 84.9242 45.8838C85.1874 45.8838 85.3958 45.829 85.5932 45.7083C85.7796 45.5987 85.9222 45.4561 86.0209 45.2806V45.8948C86.0209 46.2018 85.9331 46.4321 85.7686 46.5966C85.5932 46.7611 85.3848 46.8488 85.1106 46.8488C84.8803 46.8488 84.672 46.794 84.5075 46.6843C84.343 46.5747 84.2333 46.4321 84.1785 46.2566H83.696C83.7398 46.5747 83.8934 46.8159 84.1566 47.0024C84.4197 47.1888 84.7378 47.2765 85.1216 47.2765C85.4067 47.2765 85.648 47.2217 85.8673 47.1011C86.0757 46.9804 86.2402 46.8159 86.3608 46.6076C86.4705 46.3992 86.5363 46.1579 86.5363 45.8948V42.9009H86.0428V43.4383H86.0209ZM85.8893 44.9407C85.8015 45.1052 85.6809 45.2368 85.5274 45.3245C85.3738 45.4122 85.2093 45.4561 85.0229 45.4561C84.8365 45.4561 84.672 45.4122 84.5294 45.3245C84.3759 45.2368 84.2553 45.1052 84.1675 44.9407C84.0798 44.7762 84.0359 44.5788 84.0359 44.3595C84.0359 44.1401 84.0798 43.9427 84.1675 43.7782C84.2553 43.6137 84.3759 43.4931 84.5294 43.4054C84.6829 43.3176 84.8474 43.2738 85.0229 43.2738C85.1984 43.2738 85.3738 43.3176 85.5274 43.4054C85.6809 43.4931 85.8015 43.6247 85.8893 43.7782C85.977 43.9427 86.0209 44.1401 86.0209 44.3595C86.0209 44.5788 85.977 44.7762 85.8893 44.9407Z" fill="black"/>
<path id="Vector_57" d="M88.8719 42.8571C88.6745 42.8571 88.4881 42.9009 88.3236 42.9777C88.1591 43.0544 88.0275 43.1751 87.9288 43.3286V42.9119H87.4463V45.8509H87.9288V44.2279C87.9288 43.9208 88.0056 43.6905 88.1591 43.526C88.3126 43.3615 88.51 43.2847 88.7732 43.2847C89.0364 43.2847 89.2229 43.3615 89.3764 43.515C89.5189 43.6686 89.5957 43.8989 89.5957 44.184V45.8399H90.0782V44.1072C90.0782 43.7015 89.9686 43.3834 89.7492 43.1751C89.5299 42.9558 89.2448 42.8571 88.8829 42.8571H88.8719Z" fill="black"/>
<path id="Vector_58" d="M92.2822 42.506H93.3131V45.8398H93.7956V42.506H94.8155V42.1112H92.2822V42.506Z" fill="black"/>
<path id="Vector_59" d="M96.0108 43.3834V42.9119H95.5283V45.8509H96.0108V44.2498C96.0108 43.6576 96.285 43.3615 96.8333 43.3615H96.9649V42.8571C96.7346 42.8571 96.5482 42.9009 96.3837 42.9996C96.2192 43.0873 96.0986 43.2189 96.0218 43.3944L96.0108 43.3834Z" fill="black"/>
<path id="Vector_60" d="M99.9261 43.4383C99.8384 43.2738 99.6958 43.1312 99.4984 43.0215C99.301 42.9119 99.0817 42.8571 98.8295 42.8571C98.5773 42.8571 98.336 42.9229 98.1167 43.0435C97.9083 43.1641 97.7328 43.3396 97.6122 43.5699C97.4916 43.8002 97.4258 44.0634 97.4258 44.3595C97.4258 44.6556 97.4916 44.9187 97.6122 45.149C97.7328 45.3793 97.8973 45.5658 98.1057 45.6864C98.3141 45.807 98.5553 45.8838 98.8076 45.8838C99.0598 45.8838 99.2791 45.829 99.4765 45.7193C99.6629 45.6096 99.8055 45.4671 99.9042 45.2916V45.8399H100.398V42.9009H99.9042V43.4383H99.9261ZM99.7945 44.9407C99.7068 45.1052 99.5862 45.2368 99.4326 45.3245C99.2791 45.4122 99.1146 45.4561 98.9282 45.4561C98.7418 45.4561 98.5773 45.4122 98.4347 45.3245C98.2812 45.2368 98.1605 45.1052 98.0728 44.9407C97.9851 44.7762 97.9412 44.5788 97.9412 44.3595C97.9412 44.1401 97.9851 43.9427 98.0728 43.7782C98.1605 43.6137 98.2812 43.4931 98.4347 43.4054C98.5882 43.3176 98.7527 43.2738 98.9282 43.2738C99.1036 43.2738 99.2791 43.3176 99.4326 43.4054C99.5862 43.4931 99.7068 43.6247 99.7945 43.7782C99.8823 43.9318 99.9261 44.1401 99.9261 44.3595C99.9261 44.5788 99.8823 44.7762 99.7945 44.9407Z" fill="black"/>
<path id="Vector_61" d="M103.654 43.4274C103.556 43.2519 103.402 43.1203 103.205 43.0106C103.007 42.901 102.799 42.8571 102.569 42.8571C102.306 42.8571 102.064 42.9229 101.856 43.0435C101.648 43.1642 101.472 43.3396 101.351 43.5699C101.231 43.8002 101.165 44.0634 101.165 44.3595C101.165 44.6556 101.231 44.9188 101.351 45.1491C101.472 45.3794 101.637 45.5658 101.856 45.6865C102.064 45.8181 102.306 45.8839 102.569 45.8839C102.832 45.8839 103.04 45.829 103.238 45.7194C103.435 45.6097 103.567 45.4671 103.665 45.2917V45.84H104.159V41.8811H103.665V43.4383L103.654 43.4274ZM103.523 44.9407C103.435 45.1052 103.314 45.2368 103.161 45.3246C103.007 45.4123 102.843 45.4562 102.656 45.4562C102.47 45.4562 102.306 45.4123 102.163 45.3246C102.009 45.2368 101.889 45.1052 101.801 44.9407C101.713 44.7762 101.669 44.5788 101.669 44.3595C101.669 44.1402 101.713 43.9428 101.801 43.7783C101.889 43.6138 102.009 43.4932 102.163 43.4054C102.317 43.3177 102.481 43.2738 102.656 43.2738C102.832 43.2738 103.007 43.3177 103.161 43.4054C103.314 43.4932 103.435 43.6248 103.523 43.7783C103.611 43.9318 103.654 44.1402 103.654 44.3595C103.654 44.5788 103.611 44.7762 103.523 44.9407Z" fill="black"/>
<path id="Vector_62" d="M107.087 43.0435C106.868 42.9229 106.627 42.8571 106.353 42.8571C106.078 42.8571 105.815 42.9229 105.596 43.0435C105.377 43.1641 105.201 43.3396 105.08 43.5699C104.96 43.8002 104.894 44.0634 104.894 44.3704C104.894 44.6775 104.96 44.9407 105.08 45.171C105.201 45.4013 105.377 45.5767 105.596 45.7083C105.815 45.8399 106.067 45.8948 106.342 45.8948C106.693 45.8948 106.989 45.807 107.219 45.6316C107.449 45.4561 107.614 45.2258 107.69 44.9407H107.164C107.109 45.1052 107.011 45.2368 106.868 45.3355C106.725 45.4342 106.55 45.478 106.342 45.478C106.089 45.478 105.87 45.4013 105.684 45.2368C105.497 45.0723 105.409 44.8529 105.388 44.5569H107.734C107.734 44.4582 107.745 44.3595 107.745 44.2608C107.745 43.9976 107.69 43.7563 107.57 43.537C107.449 43.3286 107.285 43.1531 107.076 43.0325L107.087 43.0435ZM105.398 44.1621C105.42 43.8879 105.519 43.6686 105.695 43.5041C105.87 43.3505 106.078 43.2738 106.32 43.2738C106.495 43.2738 106.649 43.3067 106.791 43.3725C106.934 43.4383 107.043 43.5479 107.12 43.6795C107.197 43.8111 107.241 43.9756 107.241 44.1621H105.388H105.398Z" fill="black"/>
<path id="Vector_63" d="M112.351 43.4383C112.263 43.2738 112.121 43.1312 111.923 43.0215C111.726 42.9119 111.507 42.8571 111.254 42.8571C111.002 42.8571 110.761 42.9229 110.541 43.0435C110.333 43.1641 110.158 43.3396 110.037 43.5699C109.916 43.8002 109.851 44.0634 109.851 44.3595C109.851 44.6556 109.916 44.9187 110.037 45.149C110.158 45.3793 110.322 45.5658 110.531 45.6864C110.739 45.807 110.98 45.8838 111.232 45.8838C111.485 45.8838 111.704 45.829 111.901 45.7193C112.088 45.6096 112.23 45.4671 112.329 45.2916V45.8399H112.822V42.9009H112.329V43.4383H112.351ZM112.219 44.9407C112.132 45.1052 112.011 45.2368 111.857 45.3245C111.704 45.4122 111.539 45.4561 111.353 45.4561C111.167 45.4561 111.002 45.4122 110.859 45.3245C110.706 45.2368 110.585 45.1052 110.498 44.9407C110.41 44.7762 110.366 44.5788 110.366 44.3595C110.366 44.1401 110.41 43.9427 110.498 43.7782C110.585 43.6137 110.706 43.4931 110.859 43.4054C111.013 43.3176 111.178 43.2738 111.353 43.2738C111.528 43.2738 111.704 43.3176 111.857 43.4054C112.011 43.4931 112.132 43.6247 112.219 43.7782C112.307 43.9318 112.351 44.1401 112.351 44.3595C112.351 44.5788 112.307 44.7762 112.219 44.9407Z" fill="black"/>
<path id="Vector_64" d="M115.202 42.8571C115.005 42.8571 114.819 42.9009 114.654 42.9777C114.49 43.0544 114.358 43.1751 114.259 43.3286V42.9119H113.777V45.8509H114.259V44.2279C114.259 43.9208 114.336 43.6905 114.49 43.526C114.643 43.3615 114.841 43.2847 115.104 43.2847C115.367 43.2847 115.553 43.3615 115.707 43.515C115.86 43.6686 115.926 43.8989 115.926 44.184V45.8399H116.409V44.1072C116.409 43.7015 116.299 43.3834 116.08 43.1751C115.86 42.9558 115.564 42.8571 115.213 42.8571H115.202Z" fill="black"/>
<path id="Vector_65" d="M119.611 43.4274C119.512 43.2519 119.359 43.1203 119.161 43.0106C118.964 42.901 118.756 42.8571 118.525 42.8571C118.262 42.8571 118.021 42.9229 117.812 43.0435C117.604 43.1642 117.429 43.3396 117.308 43.5699C117.187 43.8002 117.122 44.0634 117.122 44.3595C117.122 44.6556 117.187 44.9188 117.308 45.1491C117.429 45.3794 117.593 45.5658 117.812 45.6865C118.021 45.8181 118.262 45.8839 118.525 45.8839C118.788 45.8839 118.997 45.829 119.194 45.7194C119.392 45.6097 119.523 45.4671 119.622 45.2917V45.84H120.115V41.8811H119.622V43.4383L119.611 43.4274ZM119.479 44.9407C119.392 45.1052 119.271 45.2368 119.117 45.3246C118.964 45.4123 118.799 45.4562 118.613 45.4562C118.427 45.4562 118.262 45.4123 118.12 45.3246C117.966 45.2368 117.845 45.1052 117.758 44.9407C117.67 44.7762 117.626 44.5788 117.626 44.3595C117.626 44.1402 117.67 43.9428 117.758 43.7783C117.845 43.6138 117.966 43.4932 118.12 43.4054C118.273 43.3177 118.438 43.2738 118.613 43.2738C118.788 43.2738 118.964 43.3177 119.117 43.4054C119.271 43.4932 119.392 43.6248 119.479 43.7783C119.567 43.9318 119.611 44.1402 119.611 44.3595C119.611 44.5788 119.567 44.7762 119.479 44.9407Z" fill="black"/>
<path id="Vector_66" d="M123.054 42.1112H122.572V45.8398H123.054V42.1112Z" fill="black"/>
<path id="Vector_67" d="M125.423 42.8571C125.226 42.8571 125.039 42.9009 124.875 42.9777C124.71 43.0544 124.579 43.1751 124.48 43.3286V42.9119H123.998V45.8509H124.48V44.2279C124.48 43.9208 124.557 43.6905 124.71 43.526C124.864 43.3615 125.061 43.2847 125.324 43.2847C125.588 43.2847 125.774 43.3615 125.928 43.515C126.081 43.6686 126.147 43.8989 126.147 44.184V45.8399H126.63V44.1072C126.63 43.7015 126.52 43.3834 126.301 43.1751C126.081 42.9558 125.785 42.8571 125.434 42.8571H125.423Z" fill="black"/>
<path id="Vector_68" d="M128.625 45.3903L127.704 42.9119H127.178L128.329 45.8399H128.899L130.051 42.9119H129.536L128.625 45.3903Z" fill="black"/>
<path id="Vector_69" d="M132.65 43.0435C132.431 42.9229 132.189 42.8571 131.915 42.8571C131.641 42.8571 131.378 42.9229 131.158 43.0435C130.939 43.1641 130.764 43.3396 130.643 43.5699C130.522 43.8002 130.457 44.0634 130.457 44.3704C130.457 44.6775 130.522 44.9407 130.643 45.171C130.764 45.4013 130.939 45.5767 131.158 45.7083C131.378 45.8399 131.63 45.8948 131.904 45.8948C132.255 45.8948 132.551 45.807 132.781 45.6316C133.012 45.4561 133.176 45.2258 133.253 44.9407H132.727C132.672 45.1052 132.573 45.2368 132.431 45.3355C132.288 45.4342 132.112 45.478 131.904 45.478C131.652 45.478 131.433 45.4013 131.246 45.2368C131.06 45.0723 130.972 44.8529 130.95 44.5569H133.297C133.297 44.4582 133.308 44.3595 133.308 44.2608C133.308 43.9976 133.253 43.7563 133.132 43.537C133.012 43.3286 132.847 43.1531 132.639 43.0325L132.65 43.0435ZM130.961 44.1621C130.983 43.8879 131.082 43.6686 131.257 43.5041C131.433 43.3505 131.641 43.2738 131.882 43.2738C132.058 43.2738 132.211 43.3067 132.354 43.3725C132.496 43.4383 132.606 43.5479 132.683 43.6795C132.759 43.8111 132.803 43.9756 132.803 44.1621H130.95H130.961Z" fill="black"/>
<path id="Vector_70" d="M135.688 44.3595C135.556 44.3046 135.381 44.2498 135.172 44.195C135.008 44.1511 134.876 44.1072 134.777 44.0634C134.679 44.0305 134.602 43.9756 134.547 43.9098C134.481 43.844 134.448 43.7673 134.448 43.6686C134.448 43.5479 134.503 43.4492 134.602 43.3725C134.701 43.2957 134.843 43.2628 135.019 43.2628C135.205 43.2628 135.359 43.3067 135.468 43.4054C135.578 43.5041 135.644 43.6247 135.655 43.7782H136.137C136.126 43.4931 136.017 43.2628 135.819 43.0983C135.622 42.9338 135.359 42.8571 135.03 42.8571C134.821 42.8571 134.635 42.89 134.47 42.9667C134.306 43.0435 134.174 43.1422 134.087 43.2628C133.999 43.3834 133.955 43.526 133.955 43.6795C133.955 43.866 133.999 44.0195 134.098 44.1401C134.196 44.2608 134.317 44.3485 134.448 44.4033C134.58 44.4582 134.766 44.524 134.986 44.5788C135.227 44.6446 135.403 44.6994 135.512 44.7652C135.622 44.831 135.688 44.9187 135.688 45.0503C135.688 45.1819 135.633 45.2806 135.523 45.3574C135.414 45.4342 135.271 45.478 135.085 45.478C134.887 45.478 134.723 45.4342 134.602 45.3355C134.481 45.2368 134.405 45.1271 134.394 44.9736H133.889C133.889 45.149 133.955 45.3135 134.065 45.4451C134.163 45.5877 134.306 45.6864 134.492 45.7632C134.668 45.8399 134.876 45.8838 135.095 45.8838C135.304 45.8838 135.49 45.8509 135.655 45.7741C135.819 45.6974 135.94 45.5987 136.028 45.4671C136.115 45.3355 136.159 45.1929 136.159 45.0284C136.159 44.8529 136.104 44.7104 136.017 44.5898C135.918 44.4801 135.808 44.3924 135.677 44.3375L135.688 44.3595Z" fill="black"/>
<path id="Vector_71" d="M137.563 42.166H137.08V42.9007H136.696V43.3065H137.08V45.0392C137.08 45.3243 137.146 45.5327 137.288 45.6533C137.431 45.774 137.628 45.8398 137.903 45.8398H138.341V45.423H137.979C137.826 45.423 137.727 45.3901 137.661 45.3353C137.596 45.2805 137.574 45.1708 137.574 45.0282V43.2955H138.341V42.8898H137.574V42.155L137.563 42.166Z" fill="black"/>
<path id="Vector_72" d="M143.167 42.9996C142.991 42.9009 142.783 42.8571 142.553 42.8571C142.322 42.8571 142.114 42.9119 141.917 43.0325C141.719 43.1531 141.588 43.3067 141.511 43.515C141.423 43.2957 141.281 43.1422 141.083 43.0325C140.886 42.9229 140.677 42.868 140.425 42.868C140.228 42.868 140.052 42.9119 139.888 42.9887C139.723 43.0764 139.592 43.186 139.504 43.3396V42.9119H139.021V45.8509H139.504V44.2388C139.504 43.9318 139.581 43.7015 139.734 43.537C139.888 43.3725 140.085 43.2957 140.337 43.2957C140.59 43.2957 140.776 43.3725 140.93 43.526C141.083 43.6795 141.149 43.9098 141.149 44.195V45.8509H141.631V44.2388C141.631 43.9318 141.708 43.7015 141.862 43.537C142.015 43.3725 142.213 43.2957 142.465 43.2957C142.717 43.2957 142.904 43.3725 143.057 43.526C143.211 43.6795 143.276 43.9098 143.276 44.195V45.8509H143.759V44.1182C143.759 43.844 143.704 43.6137 143.605 43.4273C143.507 43.2409 143.364 43.0983 143.178 42.9996H143.167Z" fill="black"/>
<path id="Vector_73" d="M146.654 43.0435C146.434 42.9229 146.193 42.8571 145.919 42.8571C145.645 42.8571 145.382 42.9229 145.162 43.0435C144.943 43.1641 144.768 43.3396 144.647 43.5699C144.526 43.8002 144.46 44.0634 144.46 44.3704C144.46 44.6775 144.526 44.9407 144.647 45.171C144.768 45.4013 144.943 45.5767 145.162 45.7083C145.382 45.8399 145.634 45.8948 145.908 45.8948C146.259 45.8948 146.555 45.807 146.785 45.6316C147.016 45.4561 147.18 45.2258 147.257 44.9407H146.731C146.676 45.1052 146.577 45.2368 146.434 45.3355C146.292 45.4342 146.116 45.478 145.908 45.478C145.656 45.478 145.436 45.4013 145.25 45.2368C145.064 45.0723 144.976 44.8529 144.954 44.5569H147.301C147.301 44.4582 147.312 44.3595 147.312 44.2608C147.312 43.9976 147.257 43.7563 147.136 43.537C147.016 43.3286 146.851 43.1531 146.643 43.0325L146.654 43.0435ZM144.965 44.1621C144.987 43.8879 145.086 43.6686 145.261 43.5041C145.436 43.3505 145.645 43.2738 145.886 43.2738C146.062 43.2738 146.215 43.3067 146.358 43.3725C146.5 43.4383 146.61 43.5479 146.687 43.6795C146.763 43.8111 146.807 43.9756 146.807 44.1621H144.954H144.965Z" fill="black"/>
<path id="Vector_74" d="M149.505 42.8571C149.308 42.8571 149.121 42.9009 148.957 42.9777C148.792 43.0544 148.661 43.1751 148.562 43.3286V42.9119H148.08V45.8509H148.562V44.2279C148.562 43.9208 148.639 43.6905 148.792 43.526C148.946 43.3615 149.143 43.2847 149.407 43.2847C149.67 43.2847 149.856 43.3615 150.01 43.515C150.163 43.6686 150.229 43.8989 150.229 44.184V45.8399H150.712V44.1072C150.712 43.7015 150.602 43.3834 150.383 43.1751C150.163 42.9558 149.867 42.8571 149.516 42.8571H149.505Z" fill="black"/>
<path id="Vector_75" d="M152.97 43.3066V42.9009H152.203V42.1661H151.72V42.9009H151.336V43.3066H151.72V45.0393C151.72 45.3245 151.786 45.5328 151.929 45.6535C152.071 45.7741 152.269 45.8399 152.543 45.8399H152.981V45.4232H152.619C152.466 45.4232 152.367 45.3903 152.301 45.3354C152.236 45.2806 152.214 45.1709 152.214 45.0284V43.2957H152.981L152.97 43.3066Z" fill="black"/>
</g>
</g>
<defs>
<clipPath id="clip0_11_260">
<rect width="156" height="48" fill="white"/>
</clipPath>
</defs>
</svg>
